HIERARCHY
ROOT Pelvis
{
	OFFSET 0.000000 0.000000 0.000000
	CHANNELS 6 Xposition Yposition Zposition Zrotation Yrotation Xrotation 
	JOINT Left_hip
	{
		OFFSET 0.069463 -0.088608 -0.009542
		CHANNELS 3 Zrotation Yrotation Xrotation
		JOINT Left_knee
		{
			OFFSET 0.030639 -0.359740 -0.005288
			CHANNELS 3 Zrotation Yrotation Xrotation
			JOINT Left_ankle
			{
				OFFSET -0.011068 -0.376034 -0.042462
				CHANNELS 3 Zrotation Yrotation Xrotation
				JOINT Left_foot
				{
					OFFSET 0.023192 -0.053321 0.111332
					CHANNELS 3 Zrotation Yrotation Xrotation
					End Site
					{
						OFFSET 0.000000 0.000000 0.000000
					}
				}
			}
		}
	}
	JOINT Right_hip
	{
		OFFSET -0.067438 -0.088025 -0.006263
		CHANNELS 3 Zrotation Yrotation Xrotation
		JOINT Right_knee
		{
			OFFSET -0.035962 -0.366229 -0.008063
			CHANNELS 3 Zrotation Yrotation Xrotation
			JOINT Right_ankle
			{
				OFFSET 0.013608 -0.375719 -0.040481
				CHANNELS 3 Zrotation Yrotation Xrotation
				JOINT Right_foot
				{
					OFFSET -0.021034 -0.045527 0.114617
					CHANNELS 3 Zrotation Yrotation Xrotation
					End Site
					{
						OFFSET 0.000000 0.000000 0.000000
					}
				}
			}
		}
	}
	JOINT Spine1
	{
		OFFSET -0.002610 0.101823 -0.019986
		CHANNELS 3 Zrotation Yrotation Xrotation
		JOINT Spine2
		{
			OFFSET 0.004114 0.128714 -0.000938
			CHANNELS 3 Zrotation Yrotation Xrotation
			JOINT Spine3
			{
				OFFSET 0.002191 0.048470 0.027684
				CHANNELS 3 Zrotation Yrotation Xrotation
				JOINT Neck
				{
					OFFSET -0.002856 0.198873 -0.044022
					CHANNELS 3 Zrotation Yrotation Xrotation
					JOINT Head
					{
						OFFSET 0.002981 0.062960 0.049860
						CHANNELS 3 Zrotation Yrotation Xrotation
						End Site
						{
							OFFSET 0.000000 0.000000 0.000000
						}
					}
				}
				JOINT Left_collar
				{
					OFFSET 0.073708 0.112550 -0.033440
					CHANNELS 3 Zrotation Yrotation Xrotation
					JOINT Left_shoulder
					{
						OFFSET 0.083291 0.030786 -0.008013
						CHANNELS 3 Zrotation Yrotation Xrotation
						JOINT Left_elbow
						{
							OFFSET 0.245601 -0.011792 -0.027873
							CHANNELS 3 Zrotation Yrotation Xrotation
							JOINT Left_wrist
							{
								OFFSET 0.232258 0.008622 -0.000487
								CHANNELS 3 Zrotation Yrotation Xrotation
								JOINT Left_palm
								{
									OFFSET 0.077300 -0.009457 -0.012851
									CHANNELS 3 Zrotation Yrotation Xrotation
									End Site
									{
										OFFSET 0.000000 0.000000 0.000000
									}
								}
							}
						}
					}
				}
				JOINT Right_collar
				{
					OFFSET -0.075339 0.110574 -0.037874
					CHANNELS 3 Zrotation Yrotation Xrotation
					JOINT Right_shoulder
					{
						OFFSET -0.086522 0.031207 -0.009986
						CHANNELS 3 Zrotation Yrotation Xrotation
						JOINT Right_elbow
						{
							OFFSET -0.237313 -0.011478 -0.019859
							CHANNELS 3 Zrotation Yrotation Xrotation
							JOINT Right_wrist
							{
								OFFSET -0.237599 0.007976 -0.003742
								CHANNELS 3 Zrotation Yrotation Xrotation
								JOINT Right_palm
								{
									OFFSET -0.076920 -0.006943 -0.009920
									CHANNELS 3 Zrotation Yrotation Xrotation
									End Site
									{
										OFFSET 0.000000 0.000000 0.000000
									}
								}
							}
						}
					}
				}
			}
		}
	}
}
MOTION
Frames: 16
Frame Time: 0.100000
-0.217602 0.394861 -0.608594 171.459337 26.277597 -101.056875 8.621858 2.483717 18.164326 1.750798 -10.446739 26.023667 -14.678985 16.450757 31.915858 -3.611443 -1.413152 -0.350225 -6.247859 -3.869229 21.464092 -3.272455 -1.543453 26.666302 2.270818 3.418827 34.835934 28.102580 -18.007537 -1.722268 2.318524 1.132934 30.112294 1.834904 -7.546522 21.193496 3.060680 0.053209 -9.063944 -16.419353 -21.612723 28.404558 9.927322 -16.285641 -10.651762 -26.142338 -32.534438 9.222184 -19.915641 -14.711541 9.813129 -2.757984 -12.507797 12.735442 -7.366103 -5.695214 31.447533 -1.467582 1.146210 -17.427926 26.035340 37.589077 9.580285 22.973853 12.648488 6.375800 6.613601 6.933040 9.079097 0.999234 -4.990849 20.913057 -0.378747 6.337639 -5.496122 
-0.217061 0.394881 -0.608618 171.415966 26.297714 -101.649000 7.068737 3.036646 18.416152 1.607004 -10.922754 16.614876 -15.788536 14.292092 31.503720 -3.772713 -1.130330 0.795052 -4.938850 -3.603601 21.576518 -3.187065 -0.547546 16.457008 4.483688 3.789151 35.140150 25.417011 -16.532300 0.005693 2.518025 1.281167 29.712111 1.497230 -7.609414 21.495383 3.053874 0.237529 -8.623469 -15.460827 -20.471973 27.715998 10.250895 -16.355792 -10.501163 -25.979080 -32.009527 8.525220 -21.373371 -14.227780 10.239580 -2.797600 -10.901969 12.227884 -8.179849 -5.635159 31.833188 -1.733598 0.604540 -17.488604 25.851558 37.153030 9.336770 23.693486 13.188570 6.479358 6.830039 6.201678 9.895227 1.839943 -5.215172 21.775391 0.665517 6.858977 -5.687632 
-0.215475 0.395814 -0.611148 171.673048 26.199393 -102.563452 4.745334 3.190547 19.338242 1.973736 -12.623642 6.715698 -15.951185 12.344453 31.297376 -5.084230 -0.990840 2.353361 -3.096362 -2.896841 21.123927 -3.439654 -0.013090 6.525398 5.626426 4.812672 34.912487 24.781817 -16.514397 2.149512 2.646629 1.257504 30.368376 1.146667 -7.493469 20.986394 3.015776 0.406374 -8.328862 -15.265496 -19.552223 28.705951 10.103521 -16.819366 -9.435840 -26.193981 -31.243629 8.106338 -22.420206 -13.409355 11.214891 -2.750639 -9.783951 12.608379 -9.227093 -5.663272 32.923717 -2.123771 0.487477 -18.017938 25.964711 36.707969 9.174657 24.317478 13.509002 6.683003 6.895473 5.851061 10.047174 3.041905 -5.225242 20.965684 1.348471 7.139603 -5.604503 
-0.214508 0.396672 -0.613630 171.717691 25.831980 -104.464709 3.419034 4.608663 19.980170 1.395668 -11.157313 -1.378738 -16.484757 10.946159 30.861633 -5.820244 -1.056904 3.625021 -1.881625 -3.882871 21.252652 -2.607725 -2.478703 -2.060287 6.263449 4.668679 35.422172 24.050370 -15.654129 4.219450 3.148548 1.050470 31.957817 0.805353 -7.573459 20.559261 3.079389 0.501146 -8.053914 -15.645527 -19.462216 29.124965 10.005131 -17.720554 -8.344399 -26.087788 -30.887460 7.591548 -22.843540 -12.795445 11.257037 -2.623551 -9.317660 12.437650 -9.745370 -5.898955 33.355001 -2.175418 0.239475 -18.351988 25.832701 36.490556 8.878669 24.408217 13.529561 6.336984 7.229175 5.511067 10.366463 3.422249 -5.129325 21.088837 1.948514 7.532956 -5.326291 
-0.213776 0.401570 -0.614543 171.611000 25.429216 -105.686989 1.390964 5.156839 16.662926 0.990675 -8.803413 -3.488889 -15.230235 10.481215 30.460262 -7.604750 -0.972215 4.326525 -0.188300 -4.090851 18.081348 -2.054502 -4.520126 -4.756656 5.528880 5.309004 33.699915 24.800090 -16.363851 5.495771 3.316413 0.894584 34.378235 0.771471 -7.627126 18.759365 3.447229 0.498272 -7.762232 -14.448446 -17.997229 28.422126 10.524361 -15.636736 -8.224710 -26.015014 -30.994537 7.135805 -22.948542 -12.412949 11.342800 -2.536817 -8.780985 12.500804 -10.008065 -6.153200 34.143991 -1.852408 0.326530 -18.413751 25.365689 36.167194 8.615632 24.965330 13.656181 6.509826 7.312645 4.854597 11.280593 4.093876 -4.915532 20.863511 1.412115 7.569975 -4.674869 
-0.212871 0.407170 -0.616410 171.487980 24.622162 -106.388872 0.080989 4.878886 12.472541 0.800331 -6.920183 -4.195322 -14.647651 10.020160 30.629055 -8.446308 -0.527788 4.605754 1.718623 -3.942156 14.010531 -1.657906 -6.516630 -5.569542 4.962025 4.812224 33.669367 24.559777 -15.822376 6.483711 3.717964 0.558766 37.867474 0.885630 -7.413344 16.793614 4.010857 0.673335 -7.817028 -12.110580 -17.854027 26.714706 12.585677 -14.066860 -8.764762 -26.138569 -31.764198 6.745453 -23.082505 -12.490865 11.196353 -1.997104 -8.864861 11.537100 -9.766277 -6.220747 34.644237 -1.371413 -0.004775 -18.872435 24.613841 36.638737 8.453655 25.229789 13.239806 6.288309 7.386571 4.290251 11.447956 4.229930 -4.623392 20.546247 0.895771 7.592127 -4.318040 
-0.209603 0.412819 -0.616122 171.441634 23.475395 -106.527668 0.044517 6.622018 7.390012 0.936128 -4.483670 -0.898741 -15.327358 8.249045 29.300093 -8.766416 -1.510224 4.252344 3.631458 -4.664433 10.810204 -1.717490 -7.946594 -5.163785 4.142125 6.369558 32.390378 25.418526 -16.768023 6.574899 4.043908 0.059597 40.572073 1.197889 -7.566872 13.486035 4.435957 0.619247 -7.578057 -12.617793 -20.840315 27.438034 14.461965 -16.254525 -7.785424 -25.333563 -31.214855 6.214882 -24.859536 -12.287588 10.938217 -1.359229 -9.400456 12.265819 -9.879589 -6.539728 34.513265 -1.268219 -0.084715 -18.291697 23.423231 36.535571 7.878135 26.963030 13.372592 5.805104 7.462113 4.489942 13.172939 4.574465 -3.863139 19.494656 0.440675 7.945384 -3.092783 
-0.213944 0.413132 -0.616131 171.969543 23.773505 -106.110479 -1.757730 4.476627 7.457510 1.134733 -4.377172 -4.149602 -12.135924 10.276439 28.795160 -9.792670 -1.126348 5.273102 4.129195 -3.416025 9.338555 -1.638601 -9.717021 -5.247295 1.368211 5.037885 29.870493 26.910250 -18.157997 8.279043 3.420513 0.120181 40.721218 1.289395 -7.571617 11.978574 4.211524 0.242751 -7.204245 -11.962365 -22.049338 28.193244 14.231336 -18.167004 -5.826928 -25.778676 -30.462803 6.478038 -24.022398 -12.538023 11.465374 -1.466436 -8.415013 12.528907 -10.545754 -6.361819 35.535416 -0.634637 0.847711 -18.824368 23.786630 35.945398 7.268977 27.450167 13.805158 7.166583 6.832818 4.643290 13.122863 4.989745 -3.607959 18.331338 -1.181806 7.212340 -2.654304 
-0.215625 0.413504 -0.614207 171.823976 23.571582 -105.849439 -1.699678 4.369353 7.541998 1.212897 -4.855631 -4.494306 -11.620090 10.178909 28.171417 -10.321321 -1.075006 5.411012 4.357494 -3.218924 9.377525 -1.695234 -9.424679 -5.566889 1.193848 5.341122 29.301753 27.450408 -18.744190 8.207465 3.166632 0.145236 40.101447 1.562161 -7.638008 10.772818 4.365050 0.093604 -7.232319 -10.498505 -20.826250 28.419103 14.073170 -16.615091 -4.642089 -25.484363 -29.720569 6.038447 -23.858653 -12.719170 11.484528 -1.490148 -7.781030 13.422901 -11.390156 -6.146825 35.969163 -0.448025 1.084183 -18.864119 23.420689 34.736446 6.659763 27.646098 13.893379 7.607818 6.866396 4.006552 13.953798 5.966811 -3.721434 17.552760 -1.617089 7.014752 -2.128675 
-0.217331 0.413151 -0.611777 171.509960 23.630689 -105.360220 -1.200715 3.704571 8.109646 1.279538 -6.934685 -5.002259 -12.510206 9.877311 29.621037 -10.451183 -2.032712 5.343494 3.826948 -2.934717 9.808020 -1.559994 -8.028520 -5.393687 2.678798 6.829026 30.343285 27.563813 -19.498253 7.707476 2.947581 0.455221 38.777635 1.789233 -7.718516 10.599502 4.264046 0.213731 -7.573697 -10.886401 -21.211121 28.397778 14.560766 -17.499781 -5.083694 -25.139123 -29.498421 5.551674 -23.618466 -13.063758 11.996854 -1.471194 -7.453528 13.262452 -11.189816 -6.476284 35.871724 -1.100936 1.069091 -18.606898 23.744551 34.121854 6.689255 27.299538 13.176687 7.792050 6.415677 3.521764 14.872780 6.413435 -3.919248 18.027529 -1.429890 7.093604 -2.051168 
-0.217909 0.412170 -0.610135 171.343377 23.641250 -104.898257 -0.648556 3.865805 8.790597 1.439996 -7.572249 -4.944840 -13.250484 9.825046 30.124641 -9.974440 -2.286819 5.030892 3.680519 -3.235982 10.618075 -1.295337 -7.370999 -5.441350 3.826067 7.345472 31.302407 26.995739 -19.185490 7.436186 2.747027 0.625265 37.843257 1.684859 -7.701598 10.749577 4.132879 0.215550 -7.628103 -11.249725 -21.791622 27.943806 14.617458 -18.463733 -5.376185 -24.746717 -29.243497 5.215194 -23.748246 -13.198899 12.121013 -1.449427 -7.558852 13.223420 -11.015701 -6.527680 35.669565 -1.363515 1.049281 -18.485267 23.572481 34.010775 6.337450 27.398664 13.193507 7.763483 7.001041 3.153457 14.873358 6.714148 -3.964670 17.565859 -1.065054 7.092442 -2.029310 
-0.218529 0.411333 -0.609869 170.901569 23.806740 -103.994951 -0.397697 3.657432 8.386016 1.438087 -8.099958 -4.893580 -13.763850 9.403174 30.737343 -9.758929 -2.422872 4.633701 3.402953 -3.179411 10.489388 -1.193700 -6.699242 -5.572647 4.879971 8.146550 31.797029 26.536204 -19.256101 7.022246 2.694273 0.842746 37.129431 1.623160 -7.609388 10.757993 4.051006 0.315534 -7.622844 -11.370446 -21.897040 27.501165 14.959361 -18.733266 -6.153945 -24.365231 -29.061042 4.851852 -24.574850 -13.567406 12.430968 -1.334820 -7.705599 13.021442 -11.099104 -6.513297 35.087128 -1.654688 0.960323 -18.189822 23.303365 33.748035 6.263571 27.937423 13.236147 7.710397 6.737782 3.131467 14.645113 7.087798 -4.062923 17.129318 -0.728432 7.172088 -2.135282 
-0.219536 0.410506 -0.608536 170.615246 23.984597 -103.556795 -0.245410 3.689835 8.179491 1.384152 -7.708537 -4.865491 -13.720636 9.531504 30.614984 -9.418051 -2.167529 4.541639 3.177276 -3.357823 10.709572 -1.010724 -6.382975 -5.574437 5.666097 8.164344 32.542313 26.150006 -18.926507 6.650914 2.573381 1.082341 36.891702 1.531744 -7.519840 11.026459 3.990052 0.340661 -7.522295 -11.321008 -21.511979 26.314500 14.672865 -18.687269 -6.917493 -23.915123 -28.883026 4.423590 -24.595524 -13.818088 12.307879 -1.247782 -7.653071 12.781967 -11.038731 -6.392153 34.710503 -1.728377 0.903564 -18.032769 23.096267 33.601674 5.846533 28.229411 13.693302 7.858438 6.625340 3.261047 14.211413 7.168169 -4.182877 16.960086 -0.353134 7.205055 -2.349006 
-0.217612 0.410535 -0.608044 170.208626 24.010910 -103.050088 -0.063141 3.445798 7.932066 1.346291 -6.840944 -5.102311 -13.769617 9.778631 31.009359 -9.356522 -1.718548 4.817253 3.760039 -2.624955 11.655467 -1.946290 -5.661259 -7.182316 4.984690 7.235763 33.444393 27.125889 -19.346010 6.056169 2.644865 1.093436 36.752025 1.510487 -7.399761 10.914695 4.214257 0.365638 -7.747830 -10.162639 -18.988550 24.475663 14.120226 -14.764431 -8.167317 -24.379858 -28.775756 4.366624 -24.153079 -13.883461 11.992824 -1.084709 -7.431828 12.341775 -11.319428 -6.515781 34.845972 -1.310014 0.865163 -18.207750 23.131434 33.179937 5.772095 28.267964 14.147422 8.499373 6.218343 3.417205 13.404396 7.596156 -4.267362 16.276085 -0.831320 6.918155 -2.363168 
-0.219303 0.409826 -0.606133 169.957438 23.934683 -102.583165 0.173959 3.771677 7.547206 1.299390 -6.440083 -4.748071 -13.828326 9.522223 30.905156 -9.247166 -0.980619 4.632954 3.880915 -2.907992 11.269730 -2.104011 -5.699349 -6.840275 5.466501 6.797053 33.582532 26.242235 -18.716589 5.405997 2.635142 1.155369 36.510054 1.432237 -7.257097 10.680658 4.523612 0.434491 -8.027690 -7.898467 -16.422491 21.050606 14.422346 -11.040685 -10.482107 -24.362750 -28.931198 3.972030 -24.236984 -13.574858 11.781538 -1.195949 -7.240673 12.521723 -11.065514 -6.412599 34.961261 -1.261537 0.537415 -18.527600 22.540856 32.886138 5.368802 28.610236 14.227806 8.636326 6.236019 3.782535 13.293730 7.511103 -4.223589 15.991813 -0.516463 6.912143 -2.556064 
-0.220302 0.409643 -0.605769 169.786085 23.883840 -102.328271 0.191586 3.503683 7.629374 1.364603 -6.592341 -4.721797 -13.922238 9.725286 30.878088 -8.917915 -0.722206 4.787323 4.016050 -2.720610 11.155284 -2.246679 -5.612028 -6.851116 5.484319 6.118049 33.642494 25.597973 -18.427625 5.273599 2.606438 1.193017 36.247061 1.405472 -7.194015 10.850840 4.696586 0.484493 -8.400808 -6.743241 -16.545069 17.442863 15.317005 -10.365288 -13.497511 -24.735360 -29.310439 3.972202 -24.056991 -13.240661 11.947020 -1.151871 -7.366696 12.365671 -10.924263 -6.366943 34.927988 -1.217687 0.429828 -18.700932 22.537226 33.282840 5.281347 28.438461 13.927815 8.803906 6.141949 3.812699 13.213901 7.656938 -4.394844 16.072234 -0.649456 6.806490 -2.736170 
